<svg xmlns="http://www.w3.org/2000/svg" xmlns:xlink="http://www.w3.org/1999/xlink" width="500" zoomAndPan="magnify" viewBox="0 0 375 374.999991" height="500" preserveAspectRatio="xMidYMid meet" version="1.0"><path fill="#00a746" d="M 375.722656 188.210938 C 375.722656 84.257812 291.464844 0 187.527344 0 C 83.59375 0 -0.679688 84.257812 -0.679688 188.210938 C -0.679688 276.46875 60.078125 350.539062 142.054688 370.878906 L 142.054688 245.726562 L 103.238281 245.726562 L 103.238281 188.210938 L 142.054688 188.210938 L 142.054688 163.429688 C 142.054688 99.375 171.042969 69.679688 233.929688 69.679688 C 245.855469 69.679688 266.429688 72.011719 274.84375 74.359375 L 274.84375 126.488281 C 270.402344 126.011719 262.679688 125.777344 253.101562 125.777344 C 222.242188 125.777344 210.316406 137.464844 210.316406 167.855469 L 210.316406 188.191406 L 271.785156 188.191406 L 261.226562 245.710938 L 210.316406 245.710938 L 210.316406 375.015625 C 303.507812 363.765625 375.722656 284.410156 375.722656 188.191406 Z M 375.722656 188.210938 " fill-opacity="1" fill-rule="nonzero"/></svg>